<svg xmlns="http://www.w3.org/2000/svg" xmlns:xlink="http://www.w3.org/1999/xlink" viewBox="0 0 189.52 114.78">
  <defs>
    <clipPath id="clip-path" transform="translate(17.35 11.37)">
      <path d="M53.21,22.72c-.94.88-3.44,3.5-6.51,6.47,2.37.62,4.74,1.25,7.19,1.78,2.21-3,5-6.88,5.79-7.72,1.25-1.41,1.9-2.08,1.9-2.55s-.77-1-1.73-1a11.18,11.18,0,0,0-6.64,3M84,9.71a2.71,2.71,0,0,1,2.92-2.85c8.23,0,12.29,11.66,12.29,12.4,0,.36-.18.58-.8.58-3,0-14.41-4.46-14.41-10.13M77.17,7.8c0,4.08,2.44,9.64,12.69,13.05.24.1.49.12.49.34,0,.44-4.84,7-9.18,7.73a.74.74,0,0,1-.85-.79A18.38,18.38,0,0,0,81,24.2c0-2.07-.59-5-4.53-5S68.24,21,57.22,31.67c2.7.53,5.42,1,8.18,1.37,3.43-4.14,8.72-8.24,10-8.28.82,0,1.15.33,1.18.68.14,1.47-2,2.49-3.31,3.43-1.51,1.1-2,1.47-1.85,2.39.08.5.84.66.89,1.54a1.74,1.74,0,0,1-.27,1c1.79.14,3.58.27,5.39.35a4.31,4.31,0,0,1,2.25-.77c.61,0,.86.29.86.66a.92.92,0,0,1,0,.2q4.47.08,9-.15a23.19,23.19,0,0,1,4.85-5.53c1.74-1,2.72-2.07,2.69-2.68s-1.28-1.38-1.41-2,.41-1,1.62-.72c1.76.44,3,.49,3.07,1.8,0,1-1.08,4.92-3.07,8.51,1.61-.16,3.16-.39,4.7-.62a22.73,22.73,0,0,0,2.35-8.09.73.73,0,0,1,.8-.81c.69,0,2.61.19,3.41.28a2.35,2.35,0,0,1,2.09,2.52,13.55,13.55,0,0,1-1.74,4.94,121.7,121.7,0,0,0,17-4.78c.22-3.58,2-5.07,2-6.24,0-.79-.33-1.12-1.29-1.12-2.16,0-6.41,5.17-7.15,5.17s-1.33-2.36-2-3.3c-1-1.36-2.44-1.72-6.43-1.72-2,0-3.14.18-4.93.18-2,0-2.49-.08-2.89-1S96.91,2.4,83.36,2.4c-3,0-6.19,1.32-6.19,5.4m-40.9,6.13a80.39,80.39,0,0,0-10.11,8.53c2.6,1,5.33,2,8.15,3a47.93,47.93,0,0,1,5.43-5.84c8-7.39,17.27-11,23-11a41,41,0,0,1,5.74.52c.31,0,.4,0,.54-.24s4.52-8,4.52-8,0-.2-.12-.24A6.7,6.7,0,0,0,71.05.37c-6.49,0-20.61,3.22-34.78,13.56" style="fill: none"/>
    </clipPath>
    <radialGradient id="radial-gradient" cx="-347.99" cy="845.13" r="1" gradientTransform="matrix(75.3, 0, 0, -75.3, 26319.09, 63683.02)" gradientUnits="userSpaceOnUse">
      <stop offset="0" stop-color="#8cb054"/>
      <stop offset="0.04" stop-color="#8cb054"/>
      <stop offset="0.52" stop-color="#76a348"/>
      <stop offset="0.83" stop-color="#6d9e43"/>
      <stop offset="1" stop-color="#6d9e43"/>
    </radialGradient>
    <clipPath id="clip-path-2" transform="translate(17.35 11.37)">
      <path d="M101.85,43.38c-.81,1.19-1.47,2.19-2,2.93,0,0-.57.69.3.69h7.93a1.43,1.43,0,0,0,.95-.69c.11-.14.91-1.37,1.94-3-3,.09-6,.12-9.16,0M79.36,41.11c0,2.6.87,6.31,6.9,6.31,3.37,0,6.42-1.8,9-4.4a151,151,0,0,1-16-2.11Zm44.43,1.14c0,2.2.52,5.67,4.23,5.67,7.3,0,16.38-9.27,16.84-9.34.3,0,.35.09.35.39s-1,4-11.72,17S117.6,74,117.6,76.85a3.71,3.71,0,0,0,3.47,3.83c1.1,0,5.8-.28,17-18.38,7.89-12.87,11.63-20.84,15.85-27.26-7.62,3.32-17.18,5.47-30.08,7.21M8.69,72.58c0-3.73,13-13.49,14.49-13.49.38,0,.5.14.5.47.05,2.94-9.41,14.8-13.18,14.8a1.63,1.63,0,0,1-1.81-1.78m7-31.88c0,5.45,5.1,6.13,7.77,6.13,7,0,10.1-3.23,11.45-3.23s-.78,3.28-2.88,4.57C14.69,58.69.4,67.73.4,76.14c0,3.76,3.5,4,6.16,4s15.65-1.64,35.58-32.52c.93-1.47,2.47-2.3,4-3.36s6.21-4.53,7.17-4.53.89.41.86.81a17.58,17.58,0,0,0-.68,3.6c0,1.65,1.67,3.54,4.38,3.54,6.08,0,10.45-4.3,14.08-8.21-1.18-.25-2.56-.54-4.11-.91-1.41,1.24-2.83,2.13-3.58,2.17a1.58,1.58,0,0,1-1.87-1.5,4,4,0,0,1,.35-1.94c-2.73-.7-5.8-1.55-9.14-2.59a4.21,4.21,0,0,1-2.47.86c-.21,0-.32-.22.14-.88a6.05,6.05,0,0,1,.4-.59c-2.38-.75-4.91-1.57-7.5-2.51C39,36.25,33.29,40.9,30.06,40.9c-1.25,0-2.44-.85-2.44-2.91,0-1.35,1.75-5.73,5.29-10.66-2.64-1.08-5.31-2.24-8.06-3.48-6.22,6.6-9.12,12.58-9.12,16.85" style="fill: none"/>
    </clipPath>
    <radialGradient id="radial-gradient-2" cx="-347.99" cy="845.13" r="1" gradientTransform="matrix(58.56, 0, 0, -58.56, 20475.25, 49547.01)" gradientUnits="userSpaceOnUse">
      <stop offset="0" stop-color="#bf417b"/>
      <stop offset="1" stop-color="#b0266d"/>
    </radialGradient>
    <clipPath id="clip-path-3" transform="translate(17.35 11.37)">
      <path d="M67.79,38.58c1.55.37,2.93.66,4.11.91,2-2.18,3.86-4.26,5.56-5.32-1.81-.08-3.6-.21-5.39-.35a19.78,19.78,0,0,1-4.28,4.76m29.5-5.07c-1.9,3.47-4.61,6.68-7.85,6.68a1.52,1.52,0,0,1-1.7-1.54c0-1.16.75-2.85,1.8-4.54q-4.52.22-9,.15a40.88,40.88,0,0,0-1.19,6.65,151,151,0,0,0,16,2.11A34.47,34.47,0,0,0,102,32.89c-1.54.23-3.09.46-4.7.62M56,32.82a13.17,13.17,0,0,1-2.44,1.9c3.34,1,6.41,1.89,9.14,2.59A17.91,17.91,0,0,1,65.4,33c-2.76-.35-5.48-.84-8.18-1.37-.42.38-.82.76-1.23,1.15M44.12,31.6c2.59.94,5.12,1.76,7.5,2.51.5-.65,1.31-1.81,2.27-3.14-2.45-.53-4.82-1.16-7.19-1.78-.84.78-1.69,1.6-2.58,2.41M24.85,23.85c2.75,1.24,5.42,2.4,8.06,3.48.45-.64.93-1.26,1.4-1.9-2.82-1-5.55-2-8.15-3-.47.49-.89.91-1.31,1.39m110.89,7.27c0-1.45,5-6.29,6.65-6.29.24,0,.6.19.6.48,0,1.92-5,6.43-6.59,6.43a.64.64,0,0,1-.66-.62m16.22-4c-5,5.44-11,12.73-16.47,12.73a2.37,2.37,0,0,1-2.63-2.57c0-.91.78-1.76,2.15-2.22,5.12-1.47,13.17-8.14,13.17-12.7A2.2,2.2,0,0,0,146,19.89c-2.23,0-8.4,1-16.11,10.21a4.15,4.15,0,0,1-2.45,1.74c-.75,0-1.59-1.34-1.59-4.07,0-.26,0-.54,0-.82a121.7,121.7,0,0,1-17,4.78c-1.88,3.71-4.92,8.35-7.05,11.65,3.16.08,6.19,0,9.16,0,2-3,4.82-7.37,5-7.63a1.14,1.14,0,0,1,.91-.55c1.23,0-.29,3.17,4.35,3.17a13.66,13.66,0,0,0,2.93-.67c.32,0,.37.32.37.58a23.27,23.27,0,0,0-.72,3.28,5.78,5.78,0,0,0,0,.73c12.9-1.74,22.46-3.89,30.08-7.21a50.38,50.38,0,0,1,5.94-7.68c3.27-3.22,4.13-4.95,4.13-5.69a1.78,1.78,0,0,0-1.78-2c-1.18,0-5.18,2-10.2,7.39m9.38-10.93c0,1.36,2.1,2.31,2.77,2.31,1.07,0,4.6-2.31,4.6-5.44a2.3,2.3,0,0,0-2-2.4c-1.68,0-5.39,3.73-5.39,5.53" style="fill: none"/>
    </clipPath>
    <radialGradient id="radial-gradient-3" cx="-347.99" cy="845.13" r="1" gradientTransform="matrix(53.3, 0, 0, -53.3, 18662.18, 45084.79)" gradientUnits="userSpaceOnUse">
      <stop offset="0" stop-color="#52a4d5"/>
      <stop offset="0.06" stop-color="#52a4d5"/>
      <stop offset="0.34" stop-color="#449bcd"/>
      <stop offset="0.86" stop-color="#1f84b7"/>
      <stop offset="1" stop-color="#147db1"/>
    </radialGradient>
    <clipPath id="clip-path-4" transform="translate(17.35 11.37)">
      <path d="M115.63,35.5l-1.7,2.64c-1,1.52-2.33,3.59-3.4,5.24.32,0,.63,0,.94,0,.89-1.37,2-3,3.15-4.78l1.7-2.61a.68.68,0,0,1,.57-.39c.09,0,.13,0,.28.56.27,1,.72,2.61,4.07,2.61a9,9,0,0,0,2.42-.49,4.55,4.55,0,0,1,.48-.19v.19a2.47,2.47,0,0,1-.21.71,11.7,11.7,0,0,0-.51,2.57,6.36,6.36,0,0,0,0,.78c.27,0,.53-.06.79-.08v-.67a9.13,9.13,0,0,1,.53-2.35,3.28,3.28,0,0,0,.21-1c0-.89-.53-1-.75-1a3.51,3.51,0,0,0-.78.2,6.43,6.43,0,0,1-2.15.49c-2.76,0-3.06-1.14-3.34-2-.14-.52-.3-1.12-1-1.12a1.58,1.58,0,0,0-1.26.71" style="fill: none"/>
    </clipPath>
    <linearGradient id="linear-gradient" x1="-347.99" y1="845.23" x2="-346.99" y2="845.23" gradientTransform="matrix(0, 11.65, 11.65, 0, -9727.8, 4087.7)" gradientUnits="userSpaceOnUse">
      <stop offset="0" stop-color="#3b84c5"/>
      <stop offset="0.43" stop-color="#449bd5"/>
      <stop offset="1" stop-color="#53b6e7"/>
    </linearGradient>
    <clipPath id="clip-path-5" transform="translate(17.35 11.37)">
      <path d="M96.86,33.56a20,20,0,0,1-2.8,3.87,6.6,6.6,0,0,1-4.62,2.36,1.18,1.18,0,0,1-1.35-1.14c0-1.16.85-2.86,2-4.56l-1,0a9.32,9.32,0,0,0-1.75,4.53,1.88,1.88,0,0,0,2.09,1.89A7.34,7.34,0,0,0,94.62,38a22.26,22.26,0,0,0,3.16-4.52c-.31,0-.6,0-.92.1" style="fill: none"/>
    </clipPath>
    <linearGradient id="linear-gradient-2" x1="-347.99" y1="845.1" x2="-346.99" y2="845.1" gradientTransform="matrix(0, 10.56, 10.56, 0, -8830.71, 3705.77)" gradientUnits="userSpaceOnUse">
      <stop offset="0" stop-color="#147db1"/>
      <stop offset="0.23" stop-color="#338dbe"/>
      <stop offset="0.57" stop-color="#5aa0ce"/>
      <stop offset="0.83" stop-color="#71add7"/>
      <stop offset="1" stop-color="#7ab1db"/>
    </linearGradient>
    <clipPath id="clip-path-6" transform="translate(17.35 11.37)">
      <path d="M147.78,22.34c0,4.41-8,11-12.87,12.36-1.52.45-2.41,1.42-2.41,2.56h.79c0-.79.66-1.46,1.81-1.82,5.08-1.48,13.45-8.21,13.45-13.1Z" style="fill: none"/>
    </clipPath>
    <linearGradient id="linear-gradient-3" x1="-347.99" y1="845.13" x2="-346.99" y2="845.13" gradientTransform="matrix(16.05, 0, 0, -16.05, 5734.62, 13604.53)" gradientUnits="userSpaceOnUse">
      <stop offset="0" stop-color="#136eab"/>
      <stop offset="1" stop-color="#066aa6"/>
    </linearGradient>
    <clipPath id="clip-path-7" transform="translate(17.35 11.37)">
      <path d="M129.62,29.87c-.82,1-1.63,1.58-2.14,1.58s-1.22-1.11-1.22-3.68c0-.34,0-.67.06-1a8.16,8.16,0,0,1-.8.31,4.72,4.72,0,0,0,0,.67c0,3.09,1,4.48,2,4.48s2.18-1.16,2.75-1.87a37.71,37.71,0,0,1,2.86-3.13l-.35-.79c-1,1-2,2.12-3.12,3.41" style="fill: none"/>
    </clipPath>
    <linearGradient id="linear-gradient-4" x1="-347.99" y1="845.15" x2="-346.99" y2="845.15" gradientTransform="matrix(-5.35, 0, 0, 5.35, -1733.17, -4493.89)" gradientUnits="userSpaceOnUse">
      <stop offset="0" stop-color="#53b6e7"/>
      <stop offset="0.6" stop-color="#3696d3"/>
      <stop offset="1" stop-color="#127bc0"/>
    </linearGradient>
    <clipPath id="clip-path-8" transform="translate(17.35 11.37)">
      <path d="M132.74,26.46l.35.79c6.46-6.42,11.45-7,12.95-7,1.66,0,1.74,1.73,1.74,2.08h.77A2.56,2.56,0,0,0,146,19.48c-2,0-6.95.75-13.3,7" style="fill: none"/>
    </clipPath>
    <linearGradient id="linear-gradient-5" x1="-347.99" y1="845.15" x2="-346.99" y2="845.15" gradientTransform="matrix(0, 6.33, 6.33, 0, -5209.69, 2225.7)" gradientUnits="userSpaceOnUse">
      <stop offset="0" stop-color="#53b6e7"/>
      <stop offset="0.6" stop-color="#378cc3"/>
      <stop offset="1" stop-color="#066aa6"/>
    </linearGradient>
    <clipPath id="clip-path-9" transform="translate(17.35 11.37)">
      <path d="M136.15,31.12c0-1.31,4.86-5.9,6.24-5.9a.24.24,0,0,1,.19.09c0,1.64-4.8,6.05-6.18,6.05a.23.23,0,0,1-.25-.24m-.79,0a1,1,0,0,0,1,1c1.83,0,7-4.68,7-6.84a.93.93,0,0,0-1-.84c-1.82,0-7,4.92-7,6.65" style="fill: none"/>
    </clipPath>
    <linearGradient id="linear-gradient-6" x1="-347.99" y1="845.14" x2="-346.99" y2="845.14" gradientTransform="matrix(0, -6.76, -6.76, 0, 5848.97, -2319.05)" gradientUnits="userSpaceOnUse">
      <stop offset="0" stop-color="#4597c3"/>
      <stop offset="0.28" stop-color="#3d90bc"/>
      <stop offset="0.73" stop-color="#267caa"/>
      <stop offset="1" stop-color="#146d9c"/>
    </linearGradient>
    <clipPath id="clip-path-10" transform="translate(17.35 11.37)">
      <path d="M161.76,16.17c0-1.51,3.47-5.16,5-5.16.92,0,1.58,1.08,1.58,2,0,2.91-3.33,5.05-4.2,5.05-.58,0-2.35-.83-2.35-1.92m-.78,0c0,1.63,2.21,2.72,3.13,2.72,1.19,0,5-2.43,5-5.85a2.69,2.69,0,0,0-2.37-2.8c-1.95,0-5.75,3.95-5.75,5.93" style="fill: none"/>
    </clipPath>
    <linearGradient id="linear-gradient-7" x1="-347.99" y1="845.1" x2="-346.99" y2="845.1" gradientTransform="matrix(0, 3.92, 3.92, 0, -3149.82, 1376.74)" gradientUnits="userSpaceOnUse">
      <stop offset="0" stop-color="#53b6e7"/>
      <stop offset="0.6" stop-color="#328abe"/>
      <stop offset="1" stop-color="#08639c"/>
    </linearGradient>
    <clipPath id="clip-path-11" transform="translate(17.35 11.37)">
      <path d="M151.69,26.83l-1.55,1.68c-4.64,5.13-9.91,10.93-14.65,10.93a2,2,0,0,1-2.2-2.18h-.79a2.7,2.7,0,0,0,2.58,3,9.07,9.07,0,0,0,4.6-1.2c3.81-2,7.59-6.16,11.07-10l1.5-1.68c5-5.45,8.9-7.27,9.91-7.27v-.76c-1.36,0-5.43,2-10.47,7.49" style="fill: none"/>
    </clipPath>
    <linearGradient id="linear-gradient-8" x1="-347.99" y1="845.2" x2="-346.99" y2="845.2" gradientTransform="matrix(11.05, 0, 0, -11.05, 3994.01, 9366.71)" gradientUnits="userSpaceOnUse">
      <stop offset="0" stop-color="#136eab"/>
      <stop offset="0.4" stop-color="#328fc7"/>
      <stop offset="1" stop-color="#53b6e7"/>
    </linearGradient>
    <clipPath id="clip-path-12" transform="translate(17.35 11.37)">
      <path d="M162.16,20.1a1.41,1.41,0,0,1,1.39,1.57c0,.35-.29,1.75-4.05,5.41a56.26,56.26,0,0,0-6.27,8.23l1.29-.56a50.59,50.59,0,0,1,5.56-7.09c2.76-2.76,4.27-4.82,4.27-6a2.21,2.21,0,0,0-2.19-2.33Z" style="fill: none"/>
    </clipPath>
    <linearGradient id="linear-gradient-9" x1="-347.99" y1="845.19" x2="-346.99" y2="845.19" gradientTransform="matrix(0, 7.44, 7.44, 0, -6127.99, 2606.14)" gradientUnits="userSpaceOnUse">
      <stop offset="0" stop-color="#53b6e7"/>
      <stop offset="0.43" stop-color="#328abe"/>
      <stop offset="1" stop-color="#08639c"/>
    </linearGradient>
    <clipPath id="clip-path-13" transform="translate(17.35 11.37)">
      <path d="M62,39.32a2,2,0,0,0,2.28,1.82c.94,0,2.58-1.12,4-2.43l-1-.22a7.15,7.15,0,0,1-3.13,1.86c-.92,0-1.39-.33-1.47-1.11a4.19,4.19,0,0,1,.37-1.81c-.26-.08-.51-.14-.77-.2A5,5,0,0,0,62,39.32" style="fill: none"/>
    </clipPath>
    <linearGradient id="linear-gradient-10" x1="-347.99" y1="845.13" x2="-346.99" y2="845.13" gradientTransform="matrix(6.61, 0, 0, -6.61, 2379.2, 5639.43)" gradientUnits="userSpaceOnUse">
      <stop offset="0" stop-color="#b01f5d"/>
      <stop offset="0.43" stop-color="#c24572"/>
      <stop offset="1" stop-color="#d9688f"/>
    </linearGradient>
    <clipPath id="clip-path-14" transform="translate(17.35 11.37)">
      <path d="M50.88,34.47a1.25,1.25,0,0,0-.33,1.16A.63.63,0,0,0,51,36a5,5,0,0,0,3-1.09l-1-.33a4,4,0,0,1-1.7.64,2.85,2.85,0,0,0,.18-.28c0-.1.25-.32.5-.69a5.65,5.65,0,0,1-.8-.24c-.16.24-.3.39-.34.48" style="fill: none"/>
    </clipPath>
    <linearGradient id="linear-gradient-11" x1="-347.99" y1="845.12" x2="-346.99" y2="845.12" gradientTransform="matrix(6.24, 0, 0, -6.24, 2235.32, 5317.71)" gradientUnits="userSpaceOnUse">
      <stop offset="0" stop-color="#a21b56"/>
      <stop offset="0.04" stop-color="#a41e58"/>
      <stop offset="0.67" stop-color="#c74678"/>
      <stop offset="1" stop-color="#d45584"/>
    </linearGradient>
    <clipPath id="clip-path-15" transform="translate(17.35 11.37)">
      <path d="M9.14,72.58c0-3.48,12.58-13.06,14-13.13l.09,0a.12.12,0,0,1,0,.08h0c0,1.67-3.63,6.95-7.32,10.66C13.66,72.58,11.65,74,10.5,74c-.93,0-1.36-.41-1.36-1.37m6-8.45c-2.53,2.17-6.8,6.1-6.8,8.45a2,2,0,0,0,2.15,2.15c1.74,0,4.27-2.15,6-4,3.59-3.56,7.55-9.16,7.51-11.21a.87.87,0,0,0-.18-.65.91.91,0,0,0-.69-.22c-1,0-5,2.82-8,5.44" style="fill: none"/>
    </clipPath>
    <linearGradient id="linear-gradient-12" x1="-347.99" y1="845.11" x2="-346.99" y2="845.11" gradientTransform="matrix(0, 12.11, 12.11, 0, -10215.43, 4272)" xlink:href="#linear-gradient-10"/>
    <clipPath id="clip-path-16" transform="translate(17.35 11.37)">
      <path d="M27.23,38c0,2.44,1.55,3.28,2.83,3.28,3.25,0,8.8-4.27,14.47-9.51l-.82-.29c-5,4.54-10.59,9-13.65,9-1.28,0-2.07-1-2.07-2.52,0-1.35,1.83-5.67,5.31-10.48-.26-.14-.52-.22-.76-.33-3.52,5-5.31,9.37-5.31,10.81" style="fill: none"/>
    </clipPath>
    <linearGradient id="linear-gradient-13" x1="-347.99" y1="845.22" x2="-346.99" y2="845.22" gradientTransform="matrix(0, 15.29, 15.29, 0, -12890.3, 5347.02)" gradientUnits="userSpaceOnUse">
      <stop offset="0" stop-color="#a21b56"/>
      <stop offset="0.43" stop-color="#bb416e"/>
      <stop offset="1" stop-color="#d9688f"/>
    </linearGradient>
    <clipPath id="clip-path-17" transform="translate(17.35 11.37)">
      <path d="M0,76.14H.79c0-8,13.06-16.48,31.5-27.63l-.42-.64C13.2,59.11,0,67.76,0,76.14" style="fill: none"/>
    </clipPath>
    <linearGradient id="linear-gradient-14" x1="-347.99" y1="845.14" x2="-346.99" y2="845.14" gradientTransform="matrix(11.81, 0, 0, -11.81, 4133.45, 10045.07)" gradientUnits="userSpaceOnUse">
      <stop offset="0" stop-color="#d9688f"/>
      <stop offset="0.43" stop-color="#c34773"/>
      <stop offset="1" stop-color="#b01f5d"/>
    </linearGradient>
    <clipPath id="clip-path-18" transform="translate(17.35 11.37)">
      <path d="M15.35,40.71c0,4.12,3,6.51,8.15,6.51v-.81c-2.77,0-7.39-.73-7.39-5.7,0-3.9,2.56-9.82,9.09-16.69a6,6,0,0,0-.77-.36c-6.52,7-9.08,13-9.08,17.05" style="fill: none"/>
    </clipPath>
    <linearGradient id="linear-gradient-15" x1="-347.99" y1="844.86" x2="-346.99" y2="844.86" gradientTransform="matrix(0, 4.26, 4.26, 0, -3580.68, 1520.53)" xlink:href="#linear-gradient-14"/>
    <clipPath id="clip-path-19" transform="translate(17.35 11.37)">
      <path d="M57.82,47.31c-2.6,0-4-1.84-4-3.15H53C53,46,55,48.08,57.82,48.08c6.3,0,10.86-4.53,14.52-8.47a7.76,7.76,0,0,0-.89-.19c-3.5,3.76-7.83,7.89-13.63,7.89" style="fill: none"/>
    </clipPath>
    <linearGradient id="linear-gradient-16" x1="-347.99" y1="845.23" x2="-346.99" y2="845.23" gradientTransform="matrix(0, -6.16, -6.16, 0, 5273.29, -2105.86)" gradientUnits="userSpaceOnUse">
      <stop offset="0" stop-color="#a21b56"/>
      <stop offset="0.43" stop-color="#be4d74"/>
      <stop offset="1" stop-color="#dc7a9b"/>
    </linearGradient>
    <clipPath id="clip-path-20" transform="translate(17.35 11.37)">
      <path d="M46.21,43.71l-.35.27-.89.61a10.16,10.16,0,0,0-3.14,2.83C21.94,78.2,9,79.76,6.56,79.76c-3.44,0-5.77-.6-5.77-3.62H0c0,4.43,4.43,4.43,6.56,4.43,1.43,0,5.42-.49,11.52-4.77C25.8,70.37,34,61,42.48,47.82a9.83,9.83,0,0,1,2.94-2.6l.9-.63.33-.25c4.83-3.48,6.18-4.15,6.61-4.22s.44,0,.44.07l.57-.53c-.26-.28-.5-.31-1-.31-.73,0-2.71,1.21-7,4.36" style="fill: none"/>
    </clipPath>
    <linearGradient id="linear-gradient-17" x1="-347.99" y1="845.08" x2="-346.99" y2="845.08" gradientTransform="matrix(0, 13.37, 13.37, 0, -11268.71, 4677.76)" gradientUnits="userSpaceOnUse">
      <stop offset="0" stop-color="#d9688f"/>
      <stop offset="0.43" stop-color="#bf4470"/>
      <stop offset="1" stop-color="#a31b56"/>
    </linearGradient>
    <clipPath id="clip-path-21" transform="translate(17.35 11.37)">
      <path d="M79,41.11c0,4.39,2.51,6.71,7.28,6.71,3.56,0,6.78-1.94,9.49-4.76-.31,0-.63,0-1-.1-2.29,2.25-5.2,4.09-8.52,4.09-4.37,0-6.52-2-6.52-5.94V41c-.25-.06-.52-.08-.76-.13Z" style="fill: none"/>
    </clipPath>
    <linearGradient id="linear-gradient-18" x1="-347.99" y1="845.18" x2="-346.99" y2="845.18" gradientTransform="matrix(0, 8.35, 8.35, 0, -6968.77, 2941.21)" gradientUnits="userSpaceOnUse">
      <stop offset="0" stop-color="#dc7a9b"/>
      <stop offset="0.57" stop-color="#be4d74"/>
      <stop offset="1" stop-color="#a21b56"/>
    </linearGradient>
    <clipPath id="clip-path-22" transform="translate(17.35 11.37)">
      <path d="M110.53,43.38c-1,1.45-1.67,2.57-1.81,2.69-.23.38-.49.54-.6.54h-7.93l0,0,0,0,1.3-2c.2-.36.48-.71.75-1.12a7.34,7.34,0,0,1-.92-.06c-.18.26-.36.51-.51.77,0,0-1.26,2-1.29,2a1.14,1.14,0,0,0-.25.64.51.51,0,0,0,.06.27c.08.16.29.38.81.38h7.93a1.68,1.68,0,0,0,1.27-.85c.1-.14.9-1.4,2.08-3.19-.31,0-.62,0-.94,0" style="fill: none"/>
    </clipPath>
    <linearGradient id="linear-gradient-19" x1="-347.99" y1="845.15" x2="-346.99" y2="845.15" gradientTransform="matrix(0, -7, -7, 0, 6018.42, -2386)" xlink:href="#linear-gradient-13"/>
    <clipPath id="clip-path-23" transform="translate(17.35 11.37)">
      <path d="M123.39,42.3v.06a6.83,6.83,0,0,0,1.46,4.72A4.08,4.08,0,0,0,128,48.32v-.78a3.3,3.3,0,0,1-2.61-1,6.39,6.39,0,0,1-1.23-4.31c-.26,0-.52,0-.79.08" style="fill: none"/>
    </clipPath>
    <linearGradient id="linear-gradient-20" x1="-347.99" y1="844.72" x2="-346.99" y2="844.72" gradientTransform="matrix(0, -1.09, -1.09, 0, 1044.93, -332.82)" gradientUnits="userSpaceOnUse">
      <stop offset="0" stop-color="#c13e73"/>
      <stop offset="0.7" stop-color="#c74579"/>
      <stop offset="1" stop-color="#d45384"/>
    </linearGradient>
    <clipPath id="clip-path-24" transform="translate(17.35 11.37)">
      <path d="M54,39.89l-.31.3c.07.05.07.12.07.24a.68.68,0,0,1-.07.28,5.5,5.5,0,0,1-.18.81A8.6,8.6,0,0,0,53,44.16h.79a8.18,8.18,0,0,1,.44-2.43,7.39,7.39,0,0,0,.23-1v-.19a1.08,1.08,0,0,0-.24-.85Z" style="fill: none"/>
    </clipPath>
    <linearGradient id="linear-gradient-21" x1="-347.99" y1="845.14" x2="-346.99" y2="845.14" gradientTransform="matrix(3.33, 0, 0, -3.33, 1209.58, 2856.45)" gradientUnits="userSpaceOnUse">
      <stop offset="0" stop-color="#dc7a9b"/>
      <stop offset="0.43" stop-color="#bf4e75"/>
      <stop offset="1" stop-color="#a31b56"/>
    </linearGradient>
    <clipPath id="clip-path-25" transform="translate(17.35 11.37)">
      <path d="M133.18,55.73c-2.85,3.42-5.25,6.25-7.35,8.77-5.92,7-8.62,10.13-8.62,12.35a4.11,4.11,0,0,0,.86,2.6l.51-.62a3.37,3.37,0,0,1-.6-2c0-1.91,2.83-5.25,8.44-11.86,2.12-2.51,4.53-5.33,7.35-8.8,3.83-4.63,6.41-8,8.16-10.6l-.82-.21c-1.72,2.49-4.25,5.84-7.93,10.35" style="fill: none"/>
    </clipPath>
    <linearGradient id="linear-gradient-22" x1="-347.99" y1="845.13" x2="-346.99" y2="845.13" gradientTransform="matrix(20.24, 0, 0, -20.24, 7170.12, 17165.23)" xlink:href="#linear-gradient-21"/>
    <clipPath id="clip-path-26" transform="translate(17.35 11.37)">
      <path d="M153.23,35.31c-2,3.08-3.2,5.44-5.62,9.71-2.79,4.93-5.9,10.48-10,17.08-9.71,15.8-14.55,18.17-16.57,18.17a3.34,3.34,0,0,1-2.49-1.44l-.51.62a4.1,4.1,0,0,0,3,1.59c3.84,0,9.79-6.41,17.22-18.54,4.1-6.6,7.23-12.16,10-17.07,2.69-4.73,4.09-7.44,6.23-10.68-.41.19-.84.37-1.29.56" style="fill: none"/>
    </clipPath>
    <linearGradient id="linear-gradient-23" x1="-347.99" y1="845.1" x2="-346.99" y2="845.1" gradientTransform="matrix(0, 14.32, 14.32, 0, -11962.8, 5018.81)" gradientUnits="userSpaceOnUse">
      <stop offset="0" stop-color="#dc7a9b"/>
      <stop offset="0.26" stop-color="#bf4e75"/>
      <stop offset="1" stop-color="#a31b56"/>
    </linearGradient>
    <clipPath id="clip-path-27" transform="translate(17.35 11.37)">
      <path d="M144.8,38.24c-.17,0-.32.09-1.22.9-2.68,2.29-9.74,8.4-15.56,8.4v.78c6.12,0,13.35-6.24,16-8.6.28-.23.5-.43.7-.58-.16.52-.85,2.22-3.66,6.24l.82.21c3.61-5.22,3.67-6.6,3.67-6.6a.83.83,0,0,0-.23-.66.59.59,0,0,0-.37-.14.34.34,0,0,0-.2.05" style="fill: none"/>
    </clipPath>
    <linearGradient id="linear-gradient-24" x1="-347.99" y1="845.13" x2="-346.99" y2="845.13" gradientTransform="matrix(17.58, 0, 0, -17.58, 6263.23, 14912.66)" gradientUnits="userSpaceOnUse">
      <stop offset="0" stop-color="#c13e73"/>
      <stop offset="0.43" stop-color="#b12f64"/>
      <stop offset="1" stop-color="#a31b56"/>
    </linearGradient>
    <clipPath id="clip-path-28" transform="translate(17.35 11.37)">
      <path d="M104,24.8c0,1.71-.88,4.83-2.44,8.18.32,0,.61-.11.94-.14a23.24,23.24,0,0,0,2.3-8c0-.32.07-.41.36-.41.6,0,2.06.15,3,.22l.42,0a2,2,0,0,1,1.71,2.14,13.65,13.65,0,0,1-1.86,5c.33-.06.68-.14,1-.22A13.41,13.41,0,0,0,111,26.79a2.79,2.79,0,0,0-2.44-2.92l-.42,0c-1-.08-2.41-.27-3-.27A1.09,1.09,0,0,0,104,24.8" style="fill: none"/>
    </clipPath>
    <linearGradient id="linear-gradient-25" x1="-347.99" y1="845.26" x2="-346.99" y2="845.26" gradientTransform="matrix(0, 5.37, 5.37, 0, -4433.44, 1896.3)" gradientUnits="userSpaceOnUse">
      <stop offset="0" stop-color="#6bb045"/>
      <stop offset="1" stop-color="#9ec055"/>
    </linearGradient>
    <clipPath id="clip-path-29" transform="translate(17.35 11.37)">
      <path d="M84.35,9.71a2.34,2.34,0,0,1,2.54-2.47c7.78,0,11.91,11.24,11.92,12,0,.08,0,.21-.43.21-2.74,0-14-4.38-14-9.76m-.77,0c0,6,11.73,10.52,14.8,10.52,1.07,0,1.22-.61,1.22-1,0-.76-4.07-12.79-12.71-12.79a3.07,3.07,0,0,0-3.31,3.24" style="fill: none"/>
    </clipPath>
    <linearGradient id="linear-gradient-26" x1="-347.99" y1="845.16" x2="-346.99" y2="845.16" gradientTransform="matrix(9.09, 0, 0, -9.09, 3251.85, 7694.3)" xlink:href="#linear-gradient-25"/>
    <clipPath id="clip-path-30" transform="translate(17.35 11.37)">
      <path d="M76.82,34.12c.46,0,.89.05,1.37.05a3.65,3.65,0,0,1,1.52-.41c.47,0,.47.16.47.3a.75.75,0,0,1,0,.17l.78,0a.56.56,0,0,0,0-.2c0-.24-.09-1.06-1.25-1.06a4.92,4.92,0,0,0-2.89,1.12" style="fill: none"/>
    </clipPath>
    <linearGradient id="linear-gradient-27" x1="-347.99" y1="845.17" x2="-346.99" y2="845.17" gradientTransform="matrix(0, 3.81, 3.81, 0, -3139.49, 1356.98)" gradientUnits="userSpaceOnUse">
      <stop offset="0" stop-color="#6bb045"/>
      <stop offset="0.55" stop-color="#85b84a"/>
      <stop offset="1" stop-color="#9ec055"/>
    </linearGradient>
    <clipPath id="clip-path-31" transform="translate(17.35 11.37)">
      <path d="M95.57,23a1.05,1.05,0,0,0-.26,1,2.76,2.76,0,0,0,.77,1.12c.22.24.6.6.6.77,0,.34-.65,1.27-2.49,2.35a22.37,22.37,0,0,0-5.09,5.88l1,0a22.2,22.2,0,0,1,4.52-5.17c1.84-1.08,2.9-2.23,2.88-3,0-.47-.4-.88-.83-1.31a5.1,5.1,0,0,1-.59-.74c0-.14,0-.21.08-.27s.46-.16,1.08,0l.79.21c1.47.32,1.94.5,2,1.23.06.9-1,4.92-3.09,8.56.32-.05.61-.07.92-.1,1.9-3.57,3-7.38,3-8.5-.07-1.38-1.21-1.65-2.61-2l-.75-.19a3.73,3.73,0,0,0-.85-.11,1.31,1.31,0,0,0-1,.31" style="fill: none"/>
    </clipPath>
    <linearGradient id="linear-gradient-28" x1="-347.99" y1="845.23" x2="-346.99" y2="845.23" gradientTransform="matrix(0, 5.86, 5.86, 0, -4857.53, 2066.11)" xlink:href="#linear-gradient-25"/>
    <clipPath id="clip-path-32" transform="translate(17.35 11.37)">
      <path d="M52.93,22.45l-1.44,1.42c-1.25,1.28-3.11,3.16-5.28,5.21l.92.23c1.68-1.6,3.31-3.27,4.92-4.87L53.46,23a11,11,0,0,1,6.39-2.9c.78,0,1.33.34,1.33.6H62c0-.86-1.05-1.36-2.1-1.36a11.49,11.49,0,0,0-6.92,3.11" style="fill: none"/>
    </clipPath>
    <linearGradient id="linear-gradient-29" x1="-347.99" y1="845.15" x2="-346.99" y2="845.15" gradientTransform="matrix(0, 6.14, 6.14, 0, -5137.22, 2161.62)" gradientUnits="userSpaceOnUse">
      <stop offset="0" stop-color="#9ec055"/>
      <stop offset="0.39" stop-color="#85b84a"/>
      <stop offset="1" stop-color="#6bb045"/>
    </linearGradient>
    <clipPath id="clip-path-33" transform="translate(17.35 11.37)">
      <path d="M61.18,20.7c0,.27-.6,1-1.48,1.94l-.29.35c-.8.88-3.69,4.85-5.92,7.88l.85.19c2.16-3,4.93-6.74,5.65-7.56l.3-.34C61.44,21.84,62,21.27,62,20.7Z" style="fill: none"/>
    </clipPath>
    <linearGradient id="linear-gradient-30" x1="-347.99" y1="845.13" x2="-346.99" y2="845.13" gradientTransform="matrix(10.13, 0, 0, -10.13, 3577.52, 8588.45)" gradientUnits="userSpaceOnUse">
      <stop offset="0" stop-color="#5c9942"/>
      <stop offset="0.09" stop-color="#5c9942"/>
      <stop offset="0.82" stop-color="#6bb045"/>
      <stop offset="0.89" stop-color="#6bb045"/>
      <stop offset="1" stop-color="#6bb045"/>
    </linearGradient>
    <clipPath id="clip-path-34" transform="translate(17.35 11.37)">
      <path d="M39.46,19.29a53.8,53.8,0,0,0-5.52,6,4.92,4.92,0,0,0,.79.27A45.72,45.72,0,0,1,40,19.89a46.84,46.84,0,0,1,9.13-6.63l-.36-.7a48.88,48.88,0,0,0-9.28,6.73" style="fill: none"/>
    </clipPath>
    <linearGradient id="linear-gradient-31" x1="-347.99" y1="845.13" x2="-346.99" y2="845.13" gradientTransform="matrix(15.16, 0, 0, -15.16, 5326, 12840.74)" gradientUnits="userSpaceOnUse">
      <stop offset="0" stop-color="#5c9942"/>
      <stop offset="0.03" stop-color="#5c9942"/>
      <stop offset="0.35" stop-color="#62a043"/>
      <stop offset="0.83" stop-color="#68a543"/>
      <stop offset="1" stop-color="#68a543"/>
    </linearGradient>
    <clipPath id="clip-path-35" transform="translate(17.35 11.37)">
      <path d="M56.74,31.57l.93.19C68.18,21.63,72.58,19.59,76.43,19.59A3.8,3.8,0,0,1,80,21.29a5.6,5.6,0,0,1,.67,2.91,9.88,9.88,0,0,1-.52,3.09,3.46,3.46,0,0,0-.15.84,1.29,1.29,0,0,0,.42.95l.5-.64a.32.32,0,0,1-.17-.31,2.64,2.64,0,0,1,.17-.61,11.59,11.59,0,0,0,.51-3.32,6.62,6.62,0,0,0-.56-2.89,4.41,4.41,0,0,0-4.39-2.49c-4.09,0-8.69,2.13-19.69,12.75" style="fill: none"/>
    </clipPath>
    <linearGradient id="linear-gradient-32" x1="-347.99" y1="845.13" x2="-346.99" y2="845.13" gradientTransform="matrix(24.64, 0, 0, -24.64, 8647.83, 20859.11)" gradientUnits="userSpaceOnUse">
      <stop offset="0" stop-color="#9ec055"/>
      <stop offset="0.8" stop-color="#80af4a"/>
      <stop offset="1" stop-color="#62a043"/>
    </linearGradient>
    <clipPath id="clip-path-36" transform="translate(17.35 11.37)">
      <path d="M89.9,21.29c-.69,1.12-4.93,6.58-8.8,7.22-.14.06-.17,0-.23-.07l-.5.64a1,1,0,0,0,.85.23c4.54-.8,9.52-7.43,9.52-8.12Z" style="fill: none"/>
    </clipPath>
    <linearGradient id="linear-gradient-33" x1="-347.99" y1="845.17" x2="-346.99" y2="845.17" gradientTransform="matrix(7.2, 0, 0, -7.2, 2585.74, 6107.09)" gradientUnits="userSpaceOnUse">
      <stop offset="0" stop-color="#62a043"/>
      <stop offset="0.01" stop-color="#62a043"/>
      <stop offset="0.16" stop-color="#78a845"/>
      <stop offset="0.5" stop-color="#8eb04f"/>
      <stop offset="0.85" stop-color="#7cac47"/>
      <stop offset="0.99" stop-color="#69a543"/>
      <stop offset="1" stop-color="#68a543"/>
    </linearGradient>
    <clipPath id="clip-path-37" transform="translate(17.35 11.37)">
      <path d="M121.24,22.86a14.57,14.57,0,0,1-1.75,1.49,6.5,6.5,0,0,1-.91-1.53,7.54,7.54,0,0,0-.86-1.6c-1-1.48-2.51-1.85-6.68-1.85-1,0-1.86,0-2.65.1l0,.76c.78-.05,1.62-.06,2.61-.06,3.91,0,5.18.29,6.09,1.52a14,14,0,0,1,.8,1.47c.51,1.12.92,2,1.56,2,.4,0,.85-.41,2.28-1.73S125.45,20,126.64,20c.82,0,.88.2.88.73a4.33,4.33,0,0,1-.53,1.41,11.32,11.32,0,0,0-1.47,5,8.16,8.16,0,0,0,.8-.31,10.32,10.32,0,0,1,1.38-4.33,3.85,3.85,0,0,0,.6-1.75,1.62,1.62,0,0,0-.26-1,1.73,1.73,0,0,0-1.4-.5c-1.49,0-3.7,2-5.4,3.67" style="fill: none"/>
    </clipPath>
    <linearGradient id="linear-gradient-34" x1="-347.99" y1="845.26" x2="-346.99" y2="845.26" gradientTransform="matrix(0, -17.29, -17.29, 0, 14733.67, -5983.4)" gradientUnits="userSpaceOnUse">
      <stop offset="0" stop-color="#62a043"/>
      <stop offset="0.15" stop-color="#80ae49"/>
      <stop offset="0.29" stop-color="#9ec055"/>
      <stop offset="0.66" stop-color="#66a343"/>
      <stop offset="0.84" stop-color="#80af4a"/>
      <stop offset="1" stop-color="#9ec055"/>
    </linearGradient>
    <clipPath id="clip-path-38" transform="translate(17.35 11.37)">
      <path d="M102.86,19.11c.5,1.15,1.31,1.19,3.25,1.19l2.32-.07,0-.76-2.28.05c-2.06,0-2.24-.07-2.54-.71Z" style="fill: none"/>
    </clipPath>
    <linearGradient id="linear-gradient-35" x1="-347.99" y1="845.13" x2="-346.99" y2="845.13" gradientTransform="matrix(5.57, 0, 0, -5.57, 2059.34, 4741.15)" gradientUnits="userSpaceOnUse">
      <stop offset="0" stop-color="#6bb045"/>
      <stop offset="0.59" stop-color="#85b84a"/>
      <stop offset="1" stop-color="#9ec055"/>
    </linearGradient>
    <clipPath id="clip-path-39" transform="translate(17.35 11.37)">
      <path d="M66.45,31.28a1.84,1.84,0,0,0-.41.48c-.37.39-.74.78-1.11,1.24.32,0,.63.08.94.1.23-.26.45-.56.71-.84s.55-.59.85-.87c3.31-3.49,7.09-6.21,8-6.25.47,0,.75.12.79.35v.08c0,.89-1.24,1.72-2.3,2.43l-.84.57h0c-1.36,1-2,1.46-2,2.35a2,2,0,0,0,.06.39,1.24,1.24,0,0,0,.46.73,1.53,1.53,0,0,1,.39.58h.81a2.19,2.19,0,0,0-.66-1.15.42.42,0,0,1-.22-.28c-.12-.65.09-.86,1.64-2l.08,0,.78-.51c1.3-.89,2.78-1.85,2.63-3.29,0-.49-.48-1-1.56-1-1.39.06-5.73,3.42-9,6.93" style="fill: none"/>
    </clipPath>
    <linearGradient id="linear-gradient-36" x1="-347.99" y1="845.17" x2="-346.99" y2="845.17" gradientTransform="matrix(0, 6.43, 6.43, 0, -5364.9, 2261.84)" gradientUnits="userSpaceOnUse">
      <stop offset="0" stop-color="#62a043"/>
      <stop offset="0.21" stop-color="#80ae49"/>
      <stop offset="0.49" stop-color="#9ec055"/>
      <stop offset="1" stop-color="#9ec055"/>
    </linearGradient>
    <clipPath id="clip-path-40" transform="translate(17.35 11.37)">
      <path d="M71.92,32.63a.82.82,0,0,1,0,.21s0,0,0,0a2.09,2.09,0,0,1-.34.89,6.28,6.28,0,0,0,.83.08,1.91,1.91,0,0,0,.27-1.07.71.71,0,0,0,0-.14Z" style="fill: none"/>
    </clipPath>
    <linearGradient id="linear-gradient-37" x1="-347.99" y1="845.12" x2="-346.99" y2="845.12" gradientTransform="matrix(0, 1.12, 1.12, 0, -872.24, 421.25)" xlink:href="#linear-gradient-25"/>
    <clipPath id="clip-path-41" transform="translate(17.35 11.37)">
      <path d="M77.24,5.36A6.63,6.63,0,0,0,76.8,7.8c0,3.41,1.68,9.67,12.94,13.42l.12.07h0l.84-.1c0-.48-.39-.6-.64-.68l-.13,0C79.18,16.89,77.56,11,77.56,7.8A5.51,5.51,0,0,1,78,5.6c1.08-2.49,4-2.82,5.4-2.82,11.9,0,17.89,12.38,19.46,16.18l0,.15.71-.3,0-.16C101.93,14.75,95.75,2,83.36,2c-3.07,0-5.24,1.22-6.12,3.36" style="fill: none"/>
    </clipPath>
    <linearGradient id="linear-gradient-38" x1="-347.99" y1="844.96" x2="-346.99" y2="844.96" gradientTransform="matrix(0, -8.05, -8.05, 0, 6895.84, -2797.03)" gradientUnits="userSpaceOnUse">
      <stop offset="0" stop-color="#6bb045"/>
      <stop offset="0.42" stop-color="#8bba52"/>
      <stop offset="0.81" stop-color="#a6c566"/>
      <stop offset="1" stop-color="#a6c566"/>
    </linearGradient>
    <clipPath id="clip-path-42" transform="translate(17.35 11.37)">
      <path d="M72.38.86a5.79,5.79,0,0,1,.7.1c-1.52,2.74-4.23,7.55-4.36,7.75,0,0,0,0,0,0h-.1l-.15,0a40.85,40.85,0,0,0-5.65-.48c-3.56,0-8.64,1.36-14,4.33l.36.7C54.35,10.34,59.31,9,62.78,9a40.67,40.67,0,0,1,5.51.5l.19,0A.93.93,0,0,0,69,9.47a.67.67,0,0,0,.37-.36c.18-.26,4.36-7.68,4.5-8A.62.62,0,0,0,74,.62.65.65,0,0,0,73.6.3,9,9,0,0,0,72.38.05Z" style="fill: none"/>
    </clipPath>
    <linearGradient id="linear-gradient-39" x1="-347.99" y1="845.13" x2="-346.99" y2="845.13" gradientTransform="matrix(0, -4.34, -4.34, 0, 3725.99, -1508.97)" gradientUnits="userSpaceOnUse">
      <stop offset="0" stop-color="#68a543"/>
      <stop offset="0.87" stop-color="#82b04a"/>
      <stop offset="1" stop-color="#9ec055"/>
    </linearGradient>
  </defs>
  <g id="Layer_2" data-name="Layer 2">
    <g id="Layer_1-2" data-name="Layer 1">
      <g>
        <g style="clip-path: url(#clip-path)">
          <rect x="43.51" y="11.74" width="101.77" height="33.94" style="fill: url(#radial-gradient)"/>
        </g>
        <g style="clip-path: url(#clip-path-2)">
          <rect x="17.75" y="35.22" width="153.47" height="56.83" style="fill: url(#radial-gradient-2)"/>
        </g>
        <g style="clip-path: url(#clip-path-3)">
          <rect x="42.19" y="22.01" width="143.86" height="32.82" style="fill: url(#radial-gradient-3)"/>
        </g>
        <path d="M55.74,32.54a14.92,14.92,0,0,1-2.7,2l1,.33a14.47,14.47,0,0,0,2.23-1.79c.48-.47,1-.9,1.4-1.34l-.92-.19-1,1" transform="translate(17.35 11.37)" style="fill: #53b6e8"/>
        <g style="clip-path: url(#clip-path-4)">
          <rect x="109.79" y="30.82" width="15.87" height="16.52" transform="translate(28.94 114.67) rotate(-49.54)" style="fill: url(#linear-gradient)"/>
        </g>
        <g style="clip-path: url(#clip-path-5)">
          <rect x="86.83" y="30.7" width="11.44" height="12.62" transform="translate(30.92 109.19) rotate(-59.4)" style="fill: url(#linear-gradient-2)"/>
        </g>
        <g>
          <path d="M62.32,37.23c.26.06.52.12.77.2a16.82,16.82,0,0,1,2.78-4.33c-.31,0-.62-.06-.94-.1a17.12,17.12,0,0,0-2.61,4.23" transform="translate(17.35 11.37)" style="fill: #127bc0"/>
          <path d="M43.71,31.47l.82.29c.89-.79,1.69-1.62,2.6-2.45l-.92-.23c-.79.78-1.62,1.58-2.5,2.39" transform="translate(17.35 11.37)" style="fill: #53b6e8"/>
          <path d="M71.64,33.76a11.06,11.06,0,0,1-1.44,2,25.07,25.07,0,0,1-2.88,2.78l1,.22a26.86,26.86,0,0,0,2.51-2.46,9.66,9.66,0,0,0,1.69-2.41,6.28,6.28,0,0,1-.83-.08" transform="translate(17.35 11.37)" style="fill: #53b6e8"/>
          <path d="M72.45,38.33c-.32.34-.66.7-1,1.09a7.76,7.76,0,0,1,.89.19c.24-.26.49-.5.7-.74,1.88-2.06,3.57-3.91,5.15-4.7-.48,0-.91,0-1.37-.05a31.71,31.71,0,0,0-4.37,4.21" transform="translate(17.35 11.37)" style="fill: #3b84c5"/>
          <path d="M32.54,27.18c.24.11.5.19.76.33.45-.67.91-1.3,1.43-2a5.28,5.28,0,0,1-.79-.27c-.48.63-1,1.28-1.4,1.9" transform="translate(17.35 11.37)" style="fill: #0c6eab"/>
        </g>
        <g style="clip-path: url(#clip-path-6)">
          <rect x="149.85" y="33.71" width="16.05" height="14.92" style="fill: url(#linear-gradient-3)"/>
        </g>
        <g style="clip-path: url(#clip-path-7)">
          <rect x="125.21" y="26.08" width="8.16" height="6.54" transform="translate(14.99 24.98) rotate(-5.97)" style="fill: url(#linear-gradient-4)"/>
        </g>
        <g style="clip-path: url(#clip-path-8)">
          <rect x="136.04" y="15.13" width="9.22" height="16.46" transform="translate(121.6 172.58) rotate(-84.64)" style="fill: url(#linear-gradient-5)"/>
        </g>
        <g style="clip-path: url(#clip-path-9)">
          <rect x="133.85" y="22.83" width="11.03" height="10.96" transform="translate(28.72 101.66) rotate(-37.32)" style="fill: url(#linear-gradient-6)"/>
        </g>
        <g style="clip-path: url(#clip-path-10)">
          <rect x="159.49" y="9.15" width="11.11" height="10.82" transform="translate(105.62 172.76) rotate(-67.44)" style="fill: url(#linear-gradient-7)"/>
        </g>
        <g>
          <path d="M101.37,43.34a7.34,7.34,0,0,0,.92.06,132,132,0,0,0,7.08-11.8c-.3.08-.65.16-1,.22-1.93,3.74-5,8.45-7,11.52" transform="translate(17.35 11.37)" style="fill: #66bce9"/>
          <path d="M24.43,23.66a6.78,6.78,0,0,1,.78.36c.41-.49.88-.95,1.35-1.42-.29-.09-.53-.2-.8-.29-.45.44-.89.92-1.33,1.35" transform="translate(17.35 11.37)" style="fill: #53b6e8"/>
          <path d="M53.49,30.87c-1,1.33-1.81,2.49-2.27,3.12a5.65,5.65,0,0,0,.8.24c.51-.69,1.33-1.84,2.32-3.17l-.85-.19" transform="translate(17.35 11.37)" style="fill: #0b72b1"/>
          <path d="M80,35a30.82,30.82,0,0,0-1,5.8l.76.13a30.21,30.21,0,0,1,1-5.74c.14-.51.18-.78.22-1l-.78,0c-.05.22-.14.53-.2.81" transform="translate(17.35 11.37)" style="fill: #53b6e8"/>
          <path d="M101.54,33a39.11,39.11,0,0,1-2.64,4.83A28.16,28.16,0,0,1,94.78,43c.34.06.66.06,1,.1a36.22,36.22,0,0,0,6.73-10.22c-.33,0-.62.09-.94.14" transform="translate(17.35 11.37)" style="fill: #3b84c5"/>
        </g>
        <g style="clip-path: url(#clip-path-11)">
          <rect x="129.2" y="12.85" width="36.26" height="33.86" transform="matrix(0.83, -0.56, 0.56, 0.83, 25.73, 98.49)" style="fill: url(#linear-gradient-8)"/>
        </g>
        <g style="clip-path: url(#clip-path-12)">
          <rect x="149.71" y="17.6" width="18.17" height="19.45" transform="translate(29.43 105.31) rotate(-34.19)" style="fill: url(#linear-gradient-9)"/>
        </g>
        <g style="clip-path: url(#clip-path-13)">
          <rect x="79.24" y="48.6" width="6.37" height="3.91" style="fill: url(#linear-gradient-10)"/>
        </g>
        <g style="clip-path: url(#clip-path-14)">
          <rect x="67.78" y="45.36" width="3.59" height="2.1" style="fill: url(#linear-gradient-11)"/>
        </g>
        <g style="clip-path: url(#clip-path-15)">
          <rect x="5.21" y="55.66" width="22.02" height="22.1" transform="translate(-17.2 31.86) rotate(-34.02)" style="fill: url(#linear-gradient-12)"/>
        </g>
        <g style="clip-path: url(#clip-path-16)">
          <rect x="25.15" y="23.1" width="21.45" height="22.25" transform="translate(4.63 55.46) rotate(-55.12)" style="fill: url(#linear-gradient-13)"/>
        </g>
        <g style="clip-path: url(#clip-path-17)">
          <rect x="-4.99" y="41.56" width="42.26" height="40.9" transform="matrix(0.86, -0.52, 0.52, 0.86, -12.41, 28.67)" style="fill: url(#linear-gradient-14)"/>
        </g>
        <g style="clip-path: url(#clip-path-18)">
          <rect x="9.14" y="23.12" width="22.28" height="24.63" transform="translate(-0.18 31.4) rotate(-38.05)" style="fill: url(#linear-gradient-15)"/>
        </g>
        <path d="M32.29,48.51c1.71-1.09,3.81-3.71,3.47-4.76A.75.75,0,0,0,35,43.2,4.87,4.87,0,0,0,33,44a19.53,19.53,0,0,1-9.48,2.43v.81a20.23,20.23,0,0,0,9.86-2.56A5.36,5.36,0,0,1,35,44S35,44,35,44c0,.55-1.41,2.69-3.17,3.83Z" transform="translate(17.35 11.37)" style="fill: #b01d5c"/>
        <g style="clip-path: url(#clip-path-19)">
          <rect x="54.95" y="33.18" width="15.49" height="21.14" transform="translate(15.32 95.81) rotate(-67.07)" style="fill: url(#linear-gradient-16)"/>
        </g>
        <g style="clip-path: url(#clip-path-20)">
          <rect x="-3.96" y="26.26" width="62.2" height="67.39" transform="translate(-21.14 66.38) rotate(-61.34)" style="fill: url(#linear-gradient-17)"/>
        </g>
        <g style="clip-path: url(#clip-path-21)">
          <rect x="83.25" y="35.7" width="8.23" height="17.26" transform="translate(53.85 139.43) rotate(-85.63)" style="fill: url(#linear-gradient-18)"/>
        </g>
        <g style="clip-path: url(#clip-path-22)">
          <rect x="99.42" y="39.94" width="11.95" height="10.85" transform="translate(12.58 88.83) rotate(-39.53)" style="fill: url(#linear-gradient-19)"/>
        </g>
        <g style="clip-path: url(#clip-path-23)">
          <rect x="121.93" y="41.46" width="7.55" height="7.62" transform="translate(20.23 109.23) rotate(-42.98)" style="fill: url(#linear-gradient-20)"/>
        </g>
        <g style="clip-path: url(#clip-path-24)">
          <rect x="51.47" y="40.99" width="4.61" height="1.85" transform="translate(24.8 103.31) rotate(-85.14)" style="fill: url(#linear-gradient-21)"/>
        </g>
        <g style="clip-path: url(#clip-path-25)">
          <rect x="108.56" y="42.08" width="42.03" height="40.68" transform="translate(16.73 134.91) rotate(-50.87)" style="fill: url(#linear-gradient-22)"/>
        </g>
        <g style="clip-path: url(#clip-path-26)">
          <rect x="108.47" y="33.11" width="55.65" height="49.57" transform="translate(54.38 179.15) rotate(-70.92)" style="fill: url(#linear-gradient-23)"/>
        </g>
        <g style="clip-path: url(#clip-path-27)">
          <rect x="145.37" y="49.56" width="17.58" height="10.13" style="fill: url(#linear-gradient-24)"/>
        </g>
        <g style="clip-path: url(#clip-path-28)">
          <rect x="99.62" y="21.61" width="13.35" height="13.36" transform="translate(31.51 99.74) rotate(-48.01)" style="fill: url(#linear-gradient-25)"/>
        </g>
        <g style="clip-path: url(#clip-path-29)">
          <rect x="81.76" y="4.21" width="19.66" height="18.28" transform="translate(18.08 42.36) rotate(-19.28)" style="fill: url(#linear-gradient-26)"/>
        </g>
        <g style="clip-path: url(#clip-path-30)">
          <rect x="77.3" y="31.52" width="3.18" height="4.22" transform="translate(27.4 96.14) rotate(-59.7)" style="fill: url(#linear-gradient-27)"/>
        </g>
        <g style="clip-path: url(#clip-path-31)">
          <rect x="87" y="20.44" width="15.88" height="15.95" transform="translate(38.25 105.65) rotate(-58.32)" style="fill: url(#linear-gradient-28)"/>
        </g>
        <g style="clip-path: url(#clip-path-32)">
          <rect x="47.31" y="15.48" width="13.53" height="17.7" transform="translate(34.53 82.12) rotate(-75.74)" style="fill: url(#linear-gradient-29)"/>
        </g>
        <g style="clip-path: url(#clip-path-33)">
          <rect x="52.95" y="20.27" width="9.54" height="11.22" transform="translate(14.86 17.84) rotate(-6.28)" style="fill: url(#linear-gradient-30)"/>
        </g>
        <g style="clip-path: url(#clip-path-34)">
          <rect x="51.29" y="23.93" width="15.16" height="12.99" style="fill: url(#linear-gradient-31)"/>
        </g>
        <g style="clip-path: url(#clip-path-35)">
          <rect x="74.09" y="30.19" width="24.64" height="12.94" style="fill: url(#linear-gradient-32)"/>
        </g>
        <g style="clip-path: url(#clip-path-36)">
          <rect x="78.98" y="18.74" width="13.15" height="13.06" transform="translate(23.35 77.01) rotate(-43.36)" style="fill: url(#linear-gradient-33)"/>
        </g>
        <g style="clip-path: url(#clip-path-37)">
          <rect x="111.77" y="12.48" width="13.14" height="21.32" transform="translate(80.55 141.75) rotate(-73.86)" style="fill: url(#linear-gradient-34)"/>
        </g>
        <g style="clip-path: url(#clip-path-38)">
          <rect x="120.21" y="30.18" width="5.57" height="1.5" style="fill: url(#linear-gradient-35)"/>
        </g>
        <g style="clip-path: url(#clip-path-39)">
          <rect x="63.53" y="21.7" width="15" height="14.05" transform="translate(13.34 55.61) rotate(-33.7)" style="fill: url(#linear-gradient-36)"/>
        </g>
        <g style="clip-path: url(#clip-path-40)">
          <rect x="71.4" y="32.42" width="1.61" height="1.64" transform="translate(11.26 58.32) rotate(-34.66)" style="fill: url(#linear-gradient-37)"/>
        </g>
        <g style="clip-path: url(#clip-path-41)">
          <rect x="73.83" y="-4.57" width="32.7" height="32.42" transform="translate(34.07 76.61) rotate(-43.47)" style="fill: url(#linear-gradient-38)"/>
        </g>
        <g style="clip-path: url(#clip-path-42)">
          <rect x="47.17" y="-4.27" width="28.39" height="21.84" transform="translate(19.44 35.26) rotate(-22.4)" style="fill: url(#linear-gradient-39)"/>
        </g>
        <path d="M36.47,14.22C51.13,3.6,65.09.75,71.05.75a5.07,5.07,0,0,1,1.33.11V.05a11.48,11.48,0,0,0-1.33,0C65,0,50.81,2.88,36,13.61a82.12,82.12,0,0,0-10.25,8.71c.27.08.51.19.8.28a86.44,86.44,0,0,1,9.91-8.38" transform="translate(17.35 11.37)" style="fill: #9ec054"/>
      </g>
    </g>
  </g>
</svg>
